<?xml version="1.0" encoding="utf-8"?><!-- Generator: Adobe Illustrator 24.1.3, SVG Export Plug-In . SVG Version: 6.00 Build 0)  -->
<svg version="1.1" id="Layer_1" xmlns="http://www.w3.org/2000/svg" x="0px" y="0px"
    viewBox="0 0 24 24" style="enable-background:new 0 0 24 24;" xml:space="preserve">
<g id="surface1">
	<path d="M16.6,14.3c2.9-4.1,2-9.9-2.2-12.8s-9.9-2-12.8,2.2c-2.9,4.1-2,9.9,2.2,12.8c3,2.1,6.9,2.3,10,0.4l6.8,6.7
		c0.7,0.8,2,0.8,2.7,0.1c0.8-0.7,0.8-2,0.1-2.7c0,0,0,0-0.1-0.1L16.6,14.3z M9.1,14.9c-3.3,0-5.9-2.7-5.9-5.9C3.1,5.7,5.8,3,9.1,3
		C12.4,3,15,5.7,15,9C15,12.2,12.4,14.9,9.1,14.9C9.1,14.9,9.1,14.9,9.1,14.9z" />
</g>
</svg>
